<?xml version="1.0" encoding="UTF-8"?>
<svg xmlns="http://www.w3.org/2000/svg" viewBox="0 0 32 32">
  <defs>
    <style>
      .cls-1 {
        fill: #ff9800;
      }

      .cls-2 {
        fill: #0a0e16;
      }
    </style>
  </defs>
  <g id="Layer_2">
    <rect class="cls-2" width="32" height="32" rx="7.05" ry="7.05"/>
  </g>
  <g id="Layer_1">
    <path class="cls-1" d="M23.52,14.9h.8l.61.14.75.38.42.33.42.47.33.66.14.56v.75l-.19.61-.24.47-.33.42-.38.38-.47.33h-.14l.05-.24.19-.47.09-.56v-.33l-.19-.52-.24-.28-.56-.28-.61-.14-.66-.05.19,1.13.66,4.61.05.38-.09.05H7.49l-.05-.24.24-1.36-.14.05h-.66l-.8-.14-.66-.28-.56-.42-.38-.42-.33-.66-.09-.52.05-.66.24-.61.38-.52.47-.38.52-.24.52-.14h1.41v.09l-.61.24-.52.33-.28.38-.14.33v.71l.19.52.24.28.47.24.75.14h1.36l1.18-.19,1.08-.28.94-.33h.14l.05,1.69.09.38.24.28.09.05h.47l.47-.05.52-.28.99-.61,2.4-1.46.99-.61,1.32-.8.38-.28.09-.28-.19-.38-.33-.28-.75-.42.19-.14,1.41-.61,1.36-.56.75-.24.56-.09Z"/>
    <path class="cls-1" d="M9.51,9.54h2.59l.05.05v1.6l-.38.42-.14.42.05.42.19.38.33.28.33.14.42-.05.56-.28.19-.28.09-.24v-.42l-.19-.47-.33-.33v-1.5l.05-.14h5.08l.05,1.6-.38.47-.14.33v.38l.19.47.38.33.24.09h.52l.47-.24.24-.28.14-.38-.05-.47-.19-.38-.28-.28v-1.6l.05-.05h2.54l.09.19.52,3.67.05.42-.8.14-.8.24-1.03.42-1.18.56-.75.38-.38.14-.71-.38-1.32-.8-1.93-1.13-.14-.05h-.85l-.24.05-.19.47-.05.28-.05,3.86-.05.42-.66.28-.85.28-1.22.28-1.32.19h-.24v-.38l1.32-9.12.05-.38.05-.05Z"/>
    <path class="cls-1" d="M15.24,5.26h1.22l.8.24.75.38.52.42.33.33.42.66.28.71.09.52v.75l-.05.19h-1.22v-.94l-.19-.61-.28-.56-.33-.38-.66-.42-.56-.19-.61-.05-.61.09-.56.24-.42.33-.33.33-.38.75-.14.47v.94h-1.18l-.09-.19v-.75l.19-.75.24-.52.42-.66.47-.47.66-.42.66-.28.56-.14Z"/>
    <path class="cls-1" d="M14.45,16.08h.28l.89.47,1.13.66.61.38.19.24-.19.24-1.03.61-1.18.66-.42.19h-.28l-.24-.24v-1.65l.05-1.36.19-.19Z"/>
    <path class="cls-1" d="M18.82,11.71h.33l.28.24.05.09v.28l-.24.24-.14.09-.33-.05-.24-.28v-.33l.24-.24.05-.05Z"/>
    <path class="cls-1" d="M12.56,11.71h.33l.24.24.05.09v.28l-.19.24-.19.09-.28-.05-.24-.24-.05-.09v-.28l.24-.24.09-.05Z"/>
  </g>
</svg>