<?xml version="1.0" encoding="UTF-8"?>
<svg version="1.1" viewBox="0 0 2048 480" width="490" height="115" xmlns="http://www.w3.org/2000/svg">
<path transform="translate(472,205)" d="m0 0h17l13 3 16 8 9 7 9 10 7 14 3 12v16l-4 13-5 10-7 9-8 8-10 7h-3l1-5 4-10 2-12v-7l-4-11-5-6-12-6-13-3-14-1 4 24 14 98 1 8-2 1h-354l-1-5 5-29-3 1h-14l-17-3-14-6-12-9-8-9-7-14-2-11 1-14 5-13 8-11 10-8 11-5 11-3h30v2l-13 5-11 7-6 8-3 7v15l4 11 5 6 10 5 16 3h29l25-4 23-6 20-7h3l1 36 2 8 5 6 2 1h10l10-1 11-6 21-13 51-31 21-13 28-17 8-6 2-6-4-8-7-6-16-9 4-3 30-13 29-12 16-5z" fill="#FF9D0B"/>
<path transform="translate(174,91)" d="m0 0h55l1 1v34l-8 9-3 9 1 9 4 8 7 6 7 3 9-1 12-6 4-6 2-5v-9l-4-10-7-7v-32l1-3h108l1 34-8 10-3 7v8l4 10 8 7 5 2h11l10-5 5-6 3-8-1-10-4-8-6-6v-34l1-1h54l2 4 11 78 1 9-17 3-17 5-22 9-25 12-16 8-8 3-15-8-28-17-41-24-3-1h-18l-5 1-4 10-1 6-1 82-1 9-14 6-18 6-26 6-28 4h-5v-8l28-194 1-8z" fill="#FF9D0B"/>
<path transform="translate(622,167)" d="m0 0h43l3 8 20 71 8 30 1 2 4-10 16-57 11-38 2-6h44v173l-1 1h-28l-1-1-1-116h-2l-1 9-26 86-2 2h-29l-4-9-22-71-4-14-1 113-1 1h-29l-1-3v-170z" fill="#FEFEFE"/>
<path transform="translate(1361,167)" d="m0 0h41l3 4 11 23 18 37 11 23 16 33 1 1v-105l1-16h32v173l-2 1h-39l-10-19-9-19-10-19-13-27-10-21-8-14v118l-2 1h-30l-1-1z" fill="#FEFEFE"/>
<path transform="translate(1593,165)" d="m0 0h19l16 3 16 6 13 7 2 2-1 5-12 24-5-2-16-8-11-3-6-1h-13l-9 2-8 5-4 5-1 9 4 8 11 6 39 9 13 5 11 8 7 9 4 11 1 6v17l-3 12-5 9-9 10-10 6-15 5-13 2h-26l-17-3-20-8-14-9 1-5 12-21 1-2 5 1 10 6 16 6 10 2h22l11-4 6-4 4-9-1-8-3-5-10-5-40-8-14-5-8-6-7-7-5-11-2-8v-20l4-14 7-11 9-8 14-7 12-3z" fill="#FEFEFE"/>
<path transform="translate(818,167)" d="m0 0h34l1 1v115l3 12 7 8 8 4 4 1h13l10-3 6-4 5-8 2-10 1-116h33l1 4-1 121-4 16-7 13-10 10-14 7-11 3-7 1h-23l-16-4-11-6-10-9-6-9-5-12-3-19z" fill="#FEFEFE"/>
<path transform="translate(1136,167)" d="m0 0h114l1 2-1 30h-80v41h68v31l-1 1h-67v68l-1 1h-33l-1-12v-161z" fill="#FEFEFE"/>
<path transform="translate(988,167)" d="m0 0h114v31l-1 1h-79v41h67l1 1v30l-1 1h-67v68l-2 1h-31l-1-1z" fill="#FEFEFE"/>
<path transform="translate(1900,167)" d="m0 0h35l19 59 16 51v2h2l2-10 18-56 12-38 3-8h35l-3 10-21 64-14 42-14 41-5 15-2 2h-25l-7-18-14-43-12-36-12-35-12-36z" fill="#FF9D0B"/>
<path transform="translate(1753,167)" d="m0 0h127l1 1v30l-1 1h-46v140l-2 2h-31l-1-1v-141h-47z" fill="#FF9D0B"/>
<path transform="translate(1282,167)" d="m0 0h34l1 1-1 172-1 1h-33z" fill="#FEFEFE"/>
<path transform="translate(296)" d="m0 0h26l17 5 16 8 11 9 7 7 9 14 6 15 2 11v16l-1 4h-26v-20l-4-13-6-12-7-8-14-9-12-4-13-1-13 2-12 5-9 7-7 7-8 16-3 10v20h-25l-2-4v-16l4-16 5-11 9-14 10-10 14-9 14-6z" fill="#FE9D0B"/>
<path transform="translate(279,230)" d="m0 0h6l19 10 24 14 13 8 4 5-4 5-22 13-25 14-9 4h-6l-5-5v-35l1-29z" fill="#FF9D0B"/>
<path transform="translate(372,137)" d="m0 0h7l6 5 1 2v6l-5 5-3 2-7-1-5-6v-7l5-5z" fill="#FF9D0B"/>
<path transform="translate(239,137)" d="m0 0h7l5 5 1 2v6l-4 5-4 2-6-1-5-5-1-2v-6l5-5z" fill="#FF9D0B"/>
</svg>
