<?xml version="1.0" encoding="UTF-8"?>
<svg id="Layer_1" xmlns="http://www.w3.org/2000/svg" viewBox="0 0 18.95 15.22">
  <defs>
    <style>
      .cls-1 {
        fill: #fe9d0b;
      }

      .cls-2 {
        fill: #ff9d0b;
      }
    </style>
  </defs>
  <path class="cls-2" d="M16.07,7.96h.66l.5.12.62.31.35.27.35.39.27.54.12.47v.62l-.16.5-.19.39-.27.35-.31.31-.39.27h-.12l.04-.19.16-.39.08-.47v-.27l-.16-.43-.19-.23-.47-.23-.5-.12-.54-.04.16.93.54,3.8.04.31-.08.04H2.83l-.04-.19.19-1.13-.12.04h-.54l-.66-.12-.54-.23-.47-.35-.31-.35-.27-.54-.08-.43.04-.54.19-.5.31-.43.39-.31.43-.19.43-.12h1.16v.08l-.5.19-.43.27-.23.31-.12.27v.58l.16.43.19.23.39.19.62.12h1.13l.97-.16.89-.23.78-.27h.12l.04,1.4.08.31.19.23.08.04h.39l.39-.04.43-.23.82-.5,1.98-1.2.82-.5,1.09-.66.31-.23.08-.23-.16-.31-.27-.23-.62-.35.16-.12,1.16-.5,1.13-.47.62-.19.47-.08Z"/>
  <path class="cls-2" d="M4.5,3.53h2.14l.04.04v1.32l-.31.35-.12.35.04.35.16.31.27.23.27.12.35-.04.47-.23.16-.23.08-.19v-.35l-.16-.39-.27-.27v-1.24l.04-.12h4.19l.04,1.32-.31.39-.12.27v.31l.16.39.31.27.19.08h.43l.39-.19.19-.23.12-.31-.04-.39-.16-.31-.23-.23v-1.32l.04-.04h2.1l.08.16.43,3.03.04.35-.66.12-.66.19-.85.35-.97.47-.62.31-.31.12-.58-.31-1.09-.66-1.59-.93-.12-.04h-.7l-.19.04-.16.39-.04.23-.04,3.18-.04.35-.54.23-.7.23-1.01.23-1.09.16h-.19v-.31l1.09-7.53.04-.31.04-.04Z"/>
  <path class="cls-1" d="M9.24,0h1.01l.66.19.62.31.43.35.27.27.35.54.23.58.08.43v.62l-.04.16h-1.01v-.78l-.16-.5-.23-.47-.27-.31-.54-.35-.47-.16-.5-.04-.5.08-.47.19-.35.27-.27.27-.31.62-.12.39v.78h-.97l-.08-.16v-.62l.16-.62.19-.43.35-.54.39-.39.54-.35.54-.23.47-.12Z"/>
  <path class="cls-2" d="M8.58,8.93h.23l.74.39.93.54.5.31.16.19-.16.19-.85.5-.97.54-.35.16h-.23l-.19-.19v-1.36l.04-1.13.16-.16Z"/>
  <path class="cls-2" d="M12.19,5.32h.27l.23.19.04.08v.23l-.19.19-.12.08-.27-.04-.19-.23v-.27l.19-.19.04-.04Z"/>
  <path class="cls-2" d="M7.03,5.32h.27l.19.19.04.08v.23l-.16.19-.16.08-.23-.04-.19-.19-.04-.08v-.23l.19-.19.08-.04Z"/>
</svg>